<svg width="138" height="29" viewBox="0 0 138 29" fill="none" xmlns="http://www.w3.org/2000/svg">
<path d="M136.387 9.84866C137.463 10.7185 136.324 12.0945 135.375 11.3987C134.205 10.6553 131.548 10.3074 131.215 11.9522C130.788 14.5461 137.669 13.0594 137.558 17.2665C137.447 21.2839 131.627 21.3788 129.444 19.5757C128.922 19.1487 128.938 18.4528 129.223 18.0257C129.634 17.6145 130.093 17.4722 130.63 17.915C131.927 18.8007 135.264 19.465 135.502 17.2191C135.296 14.8782 128.717 16.2859 129.207 11.7941C129.571 8.72571 134.205 8.17209 136.387 9.84866ZM126.011 10.4655V16.191C126.011 22.1063 116.474 22.1063 116.474 16.191V10.4655C116.474 9.0421 118.546 8.97877 118.546 10.4655V16.191C118.546 19.3068 123.939 19.4967 123.939 16.191V10.4655C123.939 9.0578 126.011 8.94711 126.011 10.4655ZM60.7037 9.02627C63.4716 9.16851 66.3659 11.0823 66.3659 14.8309C66.3659 18.5793 63.4716 20.5247 60.7037 20.5247C57.7777 20.6513 54.741 18.7058 54.741 14.8309C54.741 10.9399 57.7777 9.02627 60.7037 9.02627ZM74.6383 9.42156C78.6556 9.42156 79.478 14.7992 76.125 16.1435L78.2286 18.7058C79.051 19.9237 77.4061 21.0941 76.4571 19.8921L74.0689 16.4757H71.5857V19.3385C71.5857 20.7145 69.4821 20.762 69.4821 19.3701V10.3864C69.4821 9.83282 69.9092 9.42156 70.4312 9.42156H74.6383ZM41.8659 9.27933C42.3246 9.27933 42.5935 9.54822 42.8624 9.84865L46.3419 14.5461L49.9481 9.67463C50.47 9.02628 51.7511 9.27933 51.7511 10.3706V19.2753C51.7511 19.9711 51.3083 20.3665 50.8022 20.3665C50.2328 20.3665 49.7899 19.9711 49.7899 19.2753V13.4232L47.1644 16.7446C46.595 17.4405 45.8833 17.4405 45.3613 16.7446L43.0047 13.4232V19.2753C43.0047 19.9711 42.4353 20.3665 41.8659 20.3665C41.3598 20.3665 40.9169 19.9711 40.9169 19.2753V10.3706C40.9169 9.54823 41.6128 9.27933 41.8659 9.27933ZM86.1055 9.27933C88.1617 9.27933 90.0121 10.6553 90.0121 13.2966C90.0121 15.7956 88.1617 17.1874 86.1055 17.1874H83.4641V19.2753C83.4641 19.9711 83.0213 20.3665 82.4519 20.3665C81.93 20.3665 81.3764 19.9711 81.3764 19.2753V10.3706C81.3764 9.84866 81.7876 9.27933 82.4519 9.27933H86.1055ZM101.211 9.42156C101.764 9.42156 102.191 9.83282 102.191 10.4023V19.386C102.191 19.9394 101.764 20.3665 101.211 20.3665C100.641 20.3665 100.135 19.9394 100.135 19.386V15.9221H94.979V19.386C94.979 19.9394 94.5678 20.3665 94.0141 20.3665C93.3024 20.3665 92.8912 19.9394 92.8912 19.386V10.4023C92.8912 9.83282 93.3024 9.42156 94.0141 9.42156C94.5678 9.42156 94.979 9.83282 94.979 10.4023V13.8503H100.135V10.4023C100.135 9.83282 100.641 9.42156 101.211 9.42156ZM112.219 9.42156C113.674 9.42156 113.643 11.4777 112.219 11.4777H107.664V13.8503H111.65C113.057 13.8503 113.057 15.9221 111.65 15.9221H107.664V18.2945H112.488C113.927 18.2945 114.038 20.3665 112.488 20.3665H106.541C105.988 20.3665 105.56 19.9394 105.56 19.386V10.4023C105.56 9.83282 105.988 9.42156 106.541 9.42156H112.219ZM60.5297 11.0823C58.7583 11.0823 56.8287 12.3319 56.8287 14.8308C56.8287 17.314 58.7583 18.5793 60.5297 18.5793C62.3486 18.5793 64.294 17.314 64.294 14.8308C64.294 12.3319 62.3486 11.0823 60.5297 11.0823ZM86.1055 11.2722H83.4641V15.2104H86.1055C87.1651 15.2104 88.0035 14.2772 88.0035 13.2966C88.0035 12.1895 87.1651 11.2722 86.1055 11.2722ZM74.6383 11.3354H71.5857V14.6568H74.6383C76.6944 14.6568 76.8209 11.3354 74.6383 11.3354Z" fill="#3DB5E6"/>
<path d="M28.3676 17.7229C26.8256 23.918 21.1838 28.3255 14.5389 28.3255C7.86401 28.3255 2.27073 23.6571 0.791931 17.4365C2.57011 17.4365 4.23244 17.4446 5.00419 17.4446C5.36825 17.4446 5.43895 17.4509 5.46001 17.4494C6.0407 17.4208 6.76882 17.2292 7.25323 16.0513L9.0991 11.2227L13.1985 21.0928C13.5671 21.8796 14.1824 21.8239 14.5495 21.8239H14.5841C15.3001 21.8239 15.6116 21.5729 15.8839 21.0539L20.5143 11.2967L22.0939 15.694L22.1902 15.907C22.5242 16.6396 22.7644 17.3632 23.5909 17.4578C23.7613 17.4773 25.7398 17.4427 28.4071 17.4427C28.4071 17.4427 28.4071 17.4598 28.3676 17.7229Z" fill="#3DB5E6"/>
<path d="M28.8223 14.0751C28.8223 14.1489 28.8223 14.3342 28.8208 14.3342H28.8178H24.5605L22.0767 7.39596C21.8555 6.87996 21.5231 6.1064 20.5542 6.1064C19.9615 6.1064 19.426 6.59592 19.1221 7.40377L14.6195 17.8332L10.2854 7.46703C9.86112 6.54636 9.56777 6.11336 8.7193 6.11336C8.14312 6.11336 7.72039 6.3256 7.26005 7.41627L4.68757 14.4373L0.413627 14.4328C0.410616 14.326 0.409119 14.2192 0.409119 14.1124C0.409119 6.30766 6.73653 0 14.5412 0C22.346 0 28.8223 6.27043 28.8223 14.0751Z" fill="#D8292F"/>
</svg>
