<svg width="16" height="17" viewBox="0 0 16 17" fill="none" xmlns="http://www.w3.org/2000/svg">
<path d="M15.5096 8.44043C15.5096 12.7217 12.0409 16.1904 7.75961 16.1904C3.47836 16.1904 0.00961018 12.7217 0.00961018 8.44043C0.00961018 4.15918 3.47836 0.69043 7.75961 0.69043C12.0409 0.69043 15.5096 4.15918 15.5096 8.44043ZM1.50961 8.44043C1.50961 11.9092 4.29086 14.6904 7.75961 14.6904C11.1971 14.6904 14.0096 11.9092 14.0096 8.44043C14.0096 5.00293 11.1971 2.19043 7.75961 2.19043C4.29086 2.19043 1.50961 5.00293 1.50961 8.44043ZM3.75961 9.06543V7.81543C3.75961 7.62793 3.91586 7.44043 4.13461 7.44043H7.75961V5.34668C7.75961 5.03418 8.13461 4.84668 8.38461 5.09668L11.4784 8.19043C11.6346 8.34668 11.6346 8.56543 11.4784 8.72168L8.38461 11.8154C8.13461 12.0654 7.75961 11.8779 7.75961 11.5342V9.44043H4.13461C3.91586 9.44043 3.75961 9.28418 3.75961 9.06543Z" fill="#001038"/>
</svg>
